<?xml version="1.0" standalone="no"?><!DOCTYPE svg PUBLIC "-//W3C//DTD SVG 1.1//EN" "http://www.w3.org/Graphics/SVG/1.1/DTD/svg11.dtd"><svg class="icon" width="200px" height="200.00px" viewBox="0 0 1024 1024" version="1.1" xmlns="http://www.w3.org/2000/svg"><path d="M273 165.5h468.2c61.2 0 110.9 49.6 110.9 110.9v468.2c0 61.2-49.6 110.9-110.9 110.9H273c-61.2 0-110.9-49.6-110.9-110.9V276.4c0-61.3 49.6-110.9 110.9-110.9z" fill="#FCD662" /><path d="M741.1 165.5H513.2v689.9h227.9c61.2 0 110.9-49.6 110.9-110.9V276.4c0-61.3-49.6-110.9-110.9-110.9z" fill="#FACB39" /><path d="M322.2 165.5h24.6v689.9h-24.6V165.5z" fill="#FDE292" /><path d="M679.5 165.5h24.6v689.9h-24.6V165.5z" fill="#FCDB75" /><path d="M162.1 707.6V683h351.1v24.6H162.1zM162.1 528.9v-24.6h351.1v24.6H162.1zM162.1 350.3v-24.6h351.1v24.6H162.1z" fill="#FDE292" /><path d="M516.3 707.6V683H852v24.6H516.3zM516.3 528.9v-24.6H852v24.6H516.3zM516.3 350.3v-24.6H852v24.6H516.3z" fill="#FCDB75" /><path d="M334.6 282.5c30.6 0 55.4 25.3 55.4 56.5s-24.8 56.5-55.4 56.5c-30.6 0-55.4-25.3-55.4-56.5-0.1-31.2 24.7-56.5 55.4-56.5zM334.6 465.3c30.6 0 55.4 25.3 55.4 56.5s-24.8 56.5-55.4 56.5c-30.6 0-55.4-25.3-55.4-56.5s24.7-56.5 55.4-56.5z" fill="#FFFFFF" /><path d="M390 339c0-31.2-24.8-56.5-55.4-56.5v112.9c30.6 0.1 55.4-25.2 55.4-56.4zM390 521.8c0-31.2-24.8-56.5-55.4-56.5v112.9c30.6 0 55.4-25.3 55.4-56.4z" fill="#EEEEEE" /><path d="M691.9 461.2c30.6 0 55.4 24.4 55.4 54.4 0 30.1-24.8 54.4-55.4 54.4-30.6 0-55.4-24.4-55.4-54.4-0.1-30.1 24.7-54.4 55.4-54.4zM691.9 641.9c30.6 0 55.4 24.4 55.4 54.4 0 30.1-24.8 54.4-55.4 54.4-30.6 0-55.4-24.4-55.4-54.4-0.1-30.1 24.7-54.4 55.4-54.4z" fill="#282828" /><path d="M747.3 515.6c0-30.1-24.8-54.4-55.4-54.4V570c30.6 0 55.4-24.3 55.4-54.4zM747.3 696.3c0-30.1-24.8-54.4-55.4-54.4v108.8c30.6 0 55.4-24.3 55.4-54.4z" fill="#040000" /><path d="M500.9 165.5h24.6v689.9h-24.6V165.5z" fill="#FDE292" /><path d="M513.2 165.5h12.3v689.9h-12.3V165.5z" fill="#FCDB75" /></svg>